#!OML:ASF F:\VICON\USERDATA\INSTALL\rory3\rory3.ASF
:FULLY-SPECIFIED
:DEGREES
783
root -2.46891 15.7286 -29.217 -302.78 20.2887 41.962
lowerback -9.01325 -10.6295 -8.09712
upperback -13.3934 -14.6518 -9.58111
thorax -10.6168 -7.19234 -6.11415
lowerneck -15.2872 -0.689533 -3.55573
upperneck 42.6156 -0.108851 1.35518
head 18.7379 -0.357338 1.30267
rclavicle -1.53064e-014 -3.79679e-014
rhumerus 52.7686 -47.1295 -25.7684
rradius 42.7194
rwrist -60.7998
rhand -8.15379 11.3285
rfingers 7.12502
rthumb 17.7609 -17.8804
lclavicle -1.53064e-014 -3.79679e-014
lhumerus 41.6587 18.271 0.0793254
lradius 43.9005
lwrist -24.0291
lhand -11.1442 15.4342
lfingers 7.12502
lthumb 14.8816 44.8797
rfemur -80.2596 -31.581 370.232
rtibia 63.2075
rfoot 133.251 145.074
rtoes 27.9699
lfemur -5.64731 -13.8449 -0.310843
ltibia 33.7203
lfoot 32.7065 29.8187
ltoes 16.6302
784
root -2.46759 15.721 -29.2552 -302.981 21.9205 42.2647
lowerback -8.73955 -10.9838 -7.04131
upperback -12.611 -15.0873 -8.87196
thorax -9.85076 -7.48343 -5.85272
lowerneck -17.1328 -0.59679 -4.39454
upperneck 42.7611 0.591112 1.05302
head 19.3333 -0.272294 1.4627
rclavicle 6.60959e-014 5.32743e-014
rhumerus 54.8783 -47.8707 -28.0101
rradius 41.5706
rwrist -59.1902
rhand -8.15144 11.2882
rfingers 7.12502
rthumb 17.7631 -17.9205
lclavicle 6.60959e-014 5.32743e-014
lhumerus 39.2689 18.8207 -0.363658
lradius 43.3956
lwrist -24.3644
lhand -11.9036 15.8182
lfingers 7.12502
lthumb 14.1499 45.3164
rfemur -79.1277 -31.7242 370.055
rtibia 63.5002
rfoot 131.98 144.612
rtoes 28.5466
lfemur -7.34257 -13.0367 -1.24795
ltibia 33.2478
lfoot 29.7873 29.2776
ltoes 15.5155
785
root -2.456 15.7241 -29.3301 -301.475 23.0751 42.5736
lowerback -9.33279 -11.046 -5.26263
upperback -13.0423 -15.2229 -8.51669
thorax -10.389 -7.72287 -6.4234
lowerneck -17.3576 -0.626075 -4.67609
upperneck 43.052 0.812498 0.784642
head 19.5857 -0.273983 1.43592
rclavicle -6.5102e-014 -8.15017e-014
rhumerus 54.6854 -47.7038 -28.6369
rradius 40.6536
rwrist -57.5578
rhand -8.023 11.282
rfingers 7.12502
rthumb 17.8867 -17.9154
lclavicle -6.5102e-014 -8.15017e-014
lhumerus 37.8253 18.0584 -0.481042
lradius 42.9228
lwrist -24.7944
lhand -11.9931 16.4147
lfingers 7.12502
lthumb 14.0636 45.9189
rfemur -80.2042 -31.7924 370.468
rtibia 63.4634
rfoot 131.178 143.913
rtoes 29.1901
lfemur -11.0916 -11.6807 -2.42212
ltibia 33.5037
lfoot 25.2486 30.5093
ltoes 17.316
786
root -2.44558 15.7259 -29.3671 -301.652 24.2813 42.8733
lowerback -9.33605 -11.1474 -4.96338
upperback -12.4152 -15.246 -7.88045
thorax -9.4723 -7.71805 -5.93672
lowerneck -17.7298 -0.819266 -5.46482
upperneck 42.7583 0.94776 0.565854
head 19.5063 -0.374008 1.49763
rclavicle 5.54609e-014 7.95139e-015
rhumerus 55.4411 -48.4535 -29.4134
rradius 39.8044
rwrist -55.8247
rhand -7.86821 11.3954
rfingers 7.12502
rthumb 18.0356 -17.7884
lclavicle 5.54609e-014 7.95139e-015
lhumerus 36.8779 18.8206 0.686798
lradius 42.0025
lwrist -25.8931
lhand -11.3194 16.271
lfingers 7.12502
lthumb 14.7128 45.729
rfemur -78.8956 -31.5953 369.768
rtibia 63.5222
rfoot 129.741 143.79
rtoes 30.3947
lfemur -12.544 -10.5577 -3.98282
ltibia 33.5445
lfoot 20.1343 31.1845
ltoes 19.8469
787
root -2.42694 15.7368 -29.446 -300.438 25.2552 43.0095
lowerback -10.1497 -11.0762 -3.52514
upperback -12.6285 -15.1348 -7.4628
thorax -9.4963 -7.79167 -6.34268
lowerneck -17.7575 -0.98778 -5.96909
upperneck 42.8362 0.919164 0.525377
head 19.5739 -0.471633 1.56572
rclavicle 9.12422e-014 8.98507e-014
rhumerus 54.9902 -48.6219 -29.5818
rradius 39.0216
rwrist -54.0801
rhand -7.98721 11.7466
rfingers 7.12502
rthumb 17.9211 -17.4477
lclavicle 9.12422e-014 8.98507e-014
lhumerus 36.3493 18.8158 1.54546
lradius 40.9072
lwrist -26.3082
lhand -11.065 15.4922
lfingers 7.12502
lthumb 14.9579 44.932
rfemur -79.7341 -31.6867 370.276
rtibia 63.3227
rfoot 128.849 143.974
rtoes 31.9501
lfemur -15.6281 -8.78943 -5.53049
ltibia 33.9427
lfoot 16.5969 30.7151
ltoes 21.235
788
root -2.41258 15.7413 -29.4982 -300.71 26.0081 43.0997
lowerback -10.0232 -10.9391 -3.14696
upperback -12.2139 -14.9169 -7.13124
thorax -9.02318 -7.68646 -6.1876
lowerneck -17.7919 -1.19814 -6.41244
upperneck 42.6982 0.828303 0.40671
head 19.5078 -0.587132 1.56789
rclavicle -2.92213e-014 -2.54444e-014
rhumerus 54.5862 -49.0842 -29.6872
rradius 38.2799
rwrist -52.0921
rhand -8.3073 12.3238
rfingers 7.12502
rthumb 17.6131 -16.8984
lclavicle -2.92213e-014 -2.54444e-014
lhumerus 36.1093 19.0616 2.63803
lradius 39.7506
lwrist -26.3405
lhand -11.4823 15.2792
lfingers 7.12502
lthumb 14.5559 44.7485
rfemur -79.0151 -31.91 370.303
rtibia 63.2553
rfoot 128.369 144.41
rtoes 32.8708
lfemur -16.5545 -7.02811 -7.56802
ltibia 33.9332
lfoot 15.7089 29.6878
ltoes 17.0304
789
root -2.39023 15.7513 -29.5792 -299.97 26.3021 42.9648
lowerback -11.0147 -10.6848 -2.36716
upperback -12.0991 -14.4919 -6.85116
thorax -8.39706 -7.53694 -6.48594
lowerneck -18.1158 -1.30324 -6.66942
upperneck 42.591 0.812657 0.382172
head 19.5368 -0.633406 1.60037
rclavicle -4.31363e-014 -8.74653e-015
rhumerus 54.2502 -49.7167 -30.0362
rradius 37.5776
rwrist -50.254
rhand -8.57917 12.7725
rfingers 7.12502
rthumb 17.3515 -16.4729
lclavicle -4.31363e-014 -8.74653e-015
lhumerus 35.8919 19.3195 3.4147
lradius 38.8486
lwrist -26.3868
lhand -11.8092 15.6142
lfingers 7.12502
lthumb 14.2408 45.106
rfemur -80.2069 -32.2794 371.215
rtibia 62.9963
rfoot 129.067 144.375
rtoes 33.0261
lfemur -18.3109 -5.46082 -9.81024
ltibia 33.7304
lfoot 10.1023 30.9103
ltoes 23.782
790
root -2.36664 15.752 -29.6613 -299.672 26.1926 43.0095
lowerback -10.9866 -10.4898 -2.13204
upperback -12.231 -14.2466 -6.65082
thorax -8.52667 -7.42077 -6.37106
lowerneck -18.525 -1.27759 -6.8221
upperneck 42.9075 1.00769 0.320521
head 19.8579 -0.600114 1.64742
rclavicle 9.52179e-014 1.00983e-013
rhumerus 53.6508 -49.835 -30.1555
rradius 37.0032
rwrist -49.002
rhand -8.79352 12.6681
rfingers 7.12502
rthumb 17.1452 -16.5955
lclavicle 9.52179e-014 1.00983e-013
lhumerus 35.4535 19.1752 4.00813
lradius 38.115
lwrist -26.5692
lhand -11.5865 15.1991
lfingers 7.12502
lthumb 14.4554 44.6757
rfemur -81.0515 -32.7547 371.582
rtibia 62.9036
rfoot 129.699 144.866
rtoes 33.3163
lfemur -18.6236 -4.78782 -12.381
ltibia 33.0134
lfoot -7.33859 30.471
ltoes 42.7422
791
root -2.36018 15.8109 -29.6859 -300.384 26.1561 42.9831
lowerback -10.2193 -10.2586 -2.24496
upperback -12.3675 -14.004 -6.67608
thorax -9.0527 -7.27673 -6.18027
lowerneck -17.2543 -1.20622 -6.51852
upperneck 43.0536 0.98864 0.11115
head 19.5876 -0.571396 1.4831
rclavicle 2.38542e-015 2.8625e-014
rhumerus 51.3898 -49.109 -28.9576
rradius 36.6519
rwrist -48.1887
rhand -9.71086 12.7097
rfingers 7.12502
rthumb 16.2621 -16.6283
lclavicle 2.38542e-015 2.8625e-014
lhumerus 35.0727 18.2386 4.31139
lradius 37.5252
lwrist -26.6326
lhand -11.315 14.2971
lfingers 7.12502
lthumb 14.717 43.7547
rfemur -80.3553 -32.877 371.126
rtibia 62.5396
rfoot 131.865 142.43
rtoes 29.2732
lfemur -17.9454 -3.68765 -15.0063
ltibia 32.2951
lfoot -10.528 28.6879
ltoes 43.7976
792
root -2.33678 15.8381 -29.721 -301.759 26.1555 42.552
lowerback -9.77829 -9.91596 -2.37592
upperback -11.7769 -13.5134 -6.66214
thorax -8.49789 -6.99787 -6.06666
lowerneck -16.7856 -1.36699 -6.47347
upperneck 42.8794 0.682943 0.0833415
head 19.3546 -0.672412 1.39602
rclavicle -3.57812e-014 -6.67916e-014
rhumerus 49.4179 -49.0299 -27.886
rradius 36.301
rwrist -47.4654
rhand -11.2721 13.1764
rfingers 7.12502
rthumb 14.7583 -16.2782
lclavicle -3.57812e-014 -6.67916e-014
lhumerus 34.8837 17.8403 4.51
lradius 37.0754
lwrist -26.6283
lhand -11.8841 15.5966
lfingers 7.12502
lthumb 14.1687 45.0934
rfemur -79.2262 -32.9554 370.928
rtibia 62.3456
rfoot 133.199 141.871
rtoes 27.6461
lfemur -16.6472 -2.10857 -17.2981
ltibia 31.6688
lfoot -11.3773 28.5092
ltoes 41.8393
